<?xml version="1.0" standalone="no"?><svg xmlns="http://www.w3.org/2000/svg" viewBox="0 0 1440 320"><path fill="#23272a" fill-opacity="1" d="M0,160L15,181.3C30,203,60,245,90,240C120,235,150,181,180,160C210,139,240,149,270,170.7C300,192,330,224,360,208C390,192,420,128,450,90.7C480,53,510,43,540,74.7C570,107,600,181,630,213.3C660,245,690,235,720,213.3C750,192,780,160,810,128C840,96,870,64,900,90.7C930,117,960,203,990,202.7C1020,203,1050,117,1080,96C1110,75,1140,117,1170,117.3C1200,117,1230,75,1260,80C1290,85,1320,139,1350,165.3C1380,192,1410,192,1425,192L1440,192L1440,0L1425,0C1410,0,1380,0,1350,0C1320,0,1290,0,1260,0C1230,0,1200,0,1170,0C1140,0,1110,0,1080,0C1050,0,1020,0,990,0C960,0,930,0,900,0C870,0,840,0,810,0C780,0,750,0,720,0C690,0,660,0,630,0C600,0,570,0,540,0C510,0,480,0,450,0C420,0,390,0,360,0C330,0,300,0,270,0C240,0,210,0,180,0C150,0,120,0,90,0C60,0,30,0,15,0L0,0Z"></path></svg>