<?xml version="1.0" standalone="no"?><svg xmlns="http://www.w3.org/2000/svg" viewBox="0 0 1440 275"><path fill="#23272a" fill-opacity="1" d="M0,192L18.5,213.3C36.9,235,74,277,111,272C147.7,267,185,213,222,208C258.5,203,295,245,332,234.7C369.2,224,406,160,443,138.7C480,117,517,139,554,165.3C590.8,192,628,224,665,213.3C701.5,203,738,149,775,154.7C812.3,160,849,224,886,213.3C923.1,203,960,117,997,117.3C1033.8,117,1071,203,1108,240C1144.6,277,1182,267,1218,250.7C1255.4,235,1292,213,1329,197.3C1366.2,181,1403,171,1422,165.3L1440,160L1440,320L1421.5,320C1403.1,320,1366,320,1329,320C1292.3,320,1255,320,1218,320C1181.5,320,1145,320,1108,320C1070.8,320,1034,320,997,320C960,320,923,320,886,320C849.2,320,812,320,775,320C738.5,320,702,320,665,320C627.7,320,591,320,554,320C516.9,320,480,320,443,320C406.2,320,369,320,332,320C295.4,320,258,320,222,320C184.6,320,148,320,111,320C73.8,320,37,320,18,320L0,320Z"></path></svg>